# xmcd
#
# Track frame offsets:
#	150
#	14015
#	26483
#	38112
#	50456
#	60633
#	74221
#	85764
#	95953
#	109349
#	122534
#	135405
#	148184
#	163042
#	178568
#	190760
#
# Disc length: 2759 seconds
#
# Revision: 9
# Processed by: cddbd v1.5.1PL2 Copyright (c) Steve Scherf et al.
# Submitted via: EasyCDDAExtractor 10.0.1.1
#
DISCID=e80ac510
DTITLE=Johnny Cash - Duets (With June Carter Cash)
DYEAR=2006
DGENRE=Country
TTITLE0=It Ain't Me, Babe
TTITLE1=Jackson
TTITLE2=Long-Legged Guitar Pickin' Man
TTITLE3=Oh, What A Good Thing We Had
TTITLE4=Darlin' Companion
TTITLE5=If I Were A Carpenter
TTITLE6='Cause I Love You
TTITLE7=The Loving Gift
TTITLE8=Help Me Make It Through The Night
TTITLE9=The Pine Tree
TTITLE10=No Need To Worry
TTITLE11=Old Time Feeling
TTITLE12=One Way Rider
TTITLE13=Brand New Dance
TTITLE14=Far Side Banks Of Jordan
TTITLE15=It Takes One To Know Me
EXTD=Label: Columbia\nBestellnummer: 82876 78344 2\nFirma: SONY BMG MUSIC ENTE
EXTD=RTAINMENT\n(c)2006 Sony BMG Music Entertainment\nupc 828767834429\n\n\n F
EXTD=ür freedb bereitgestelt von:\n    KELLER'S Musik-Katalog 2006 2006
EXTT0=
EXTT1=
EXTT2=
EXTT3=
EXTT4=
EXTT5=
EXTT6=
EXTT7=
EXTT8=
EXTT9=
EXTT10=
EXTT11=
EXTT12=
EXTT13=
EXTT14=
EXTT15=
PLAYORDER=
